<?xml version="1.0" standalone="no"?><!DOCTYPE svg PUBLIC "-//W3C//DTD SVG 1.1//EN" "http://www.w3.org/Graphics/SVG/1.1/DTD/svg11.dtd"><svg t="1732962621874" class="icon" viewBox="0 0 1024 1024" version="1.1" xmlns="http://www.w3.org/2000/svg" p-id="6170" xmlns:xlink="http://www.w3.org/1999/xlink" width="200" height="200"><path d="M512 81.5c-237.9 0-430.7 192.8-430.7 430.7 0 237.6 192.8 430.4 430.7 430.4s430.4-192.8 430.4-430.4c0-237.9-192.5-430.7-430.4-430.7z m249.8 609.6c-3.1 6.1-8.8 9.5-15.3 9.5-2.4 0-5.1-0.3-7.5-1.7L475 570.2c-5.8-2.7-9.5-8.8-9.5-15.3V258.7c0-9.5 7.5-16.9 16.9-16.9 9.5 0 16.9 7.5 16.9 16.9v285.7l254.5 124c8.6 4.4 12 14.3 8 22.7z" fill="#333333" p-id="6171"></path><path d="M512 64.5c-246.7 0-447.7 201-447.7 447.7s201 447.4 447.7 447.4S959.4 759 959.4 512.2C959.3 265.5 758.7 64.5 512 64.5z m0 861.2c-228.1 0-413.8-185.4-413.8-413.5S283.9 98.4 512 98.4s413.5 185.7 413.5 413.8c-0.1 228.1-185.4 413.5-413.5 413.5z" fill="#333333" p-id="6172"></path></svg>